<svg xmlns="http://www.w3.org/2000/svg" viewBox="0 0 340 340"><g id="Layer_3" data-name="Layer 3"><path d="M204.118,280.026v28.126a14.334,14.334,0,0,0,2.87,8.708c3.738,4.9,11.715,11.683,27.224,11.683s23.486-6.785,27.224-11.683a14.334,14.334,0,0,0,2.87-8.708V295.706Z" style="fill:#ffcac0"/><path d="M204.118,280.026c9.671,8.251,30.094,20.327,60.188,15.68V262.869H204.118Z" style="fill:#e5837c"/><path d="M234.212,143.98s-60.577-3.918-51.661,75.49c0,0,.545,54.455,51.661,57.007,51.116-2.552,51.661-57.007,51.661-57.007,24.3-24.99,10.676-85.68,10.676-85.68Z" style="fill:#ffcac0"/><path d="M300.259,164.961a188.013,188.013,0,0,0-3.71-31.17L234.212,143.98s-42.85-2.765-51.164,43.6c1.847,1.9,10.127,8.351,27.968-5.372a133.81,133.81,0,0,1,42.566-21.546s-1.752,30.655,36.435,10.16C293.736,168.83,297.136,166.872,300.259,164.961Z" style="fill:#e5837c"/><path d="M193.837,171.332s-12.668,14.741-11.286,48.138l-16.917-16.476s-7.958-24.752-2.2-42.948l30.4-16.066S200.056,154.058,193.837,171.332Z" style="fill:#5c5c6d"/><path d="M87.705,237.608V44.768A21.894,21.894,0,0,0,65.811,22.874h0a21.894,21.894,0,0,0-21.9,21.894v3.12a7.565,7.565,0,0,1,0,6.936V66.637a11.361,11.361,0,0,1,0,6.936V85.387a11.361,11.361,0,0,1,0,6.936v145.14a10.115,10.115,0,0,1-4.234,8.3,45.517,45.517,0,1,0,52.386.091A10.124,10.124,0,0,1,87.705,237.608Z" style="fill:#e3f2ff"/><path d="M72.836,255.461V112.983a7.219,7.219,0,0,0-6.809-7.316,7.024,7.024,0,0,0-7.241,7.022V255.463a8.241,8.241,0,0,1-4.3,7.182,23.312,23.312,0,1,0,22.663.011A8.265,8.265,0,0,1,72.836,255.461Z" style="fill:#f74f73"/><path d="M264.321,146.013S225.794,158.331,196,177.752a7.2,7.2,0,0,1-10.93-7.607,44.559,44.559,0,0,1,5.853-14.021,104.678,104.678,0,0,0-29.419,10.49,8.641,8.641,0,0,1-12.6-9.3c1.736-8.449,5.609-19.341,13.828-31.678a119.361,119.361,0,0,1,51.328-42.626,174.361,174.361,0,0,1,28.274-9.782,37.157,37.157,0,0,1,23.078,1.567c9.172,3.774,20.3,11.427,24.444,26.8,0,0,68.244,43.207-1.615,114.278,0,0,5.25-27.137-3.634-55.363C284.6,160.509,255.749,173.876,264.321,146.013Z" style="fill:#5c5c6d"/><path d="M184.317,218.052s-1.394-14.769-11.435-18.529a9.222,9.222,0,0,0-12.239,7.056c-.751,4-.865,10.035.678,19.13,3.642,21.48,24.93,13.817,24.93,13.817Z" style="fill:#ffcac0"/><path d="M284.122,218.052s1.394-14.769,11.435-18.529a9.222,9.222,0,0,1,12.239,7.056c.751,4,.865,10.035-.678,19.13-3.642,21.48-24.93,13.817-24.93,13.817Z" style="fill:#ffcac0"/><path d="M234.212,235.748s-11.879-.107-18.41,12.567a1.8,1.8,0,0,0,1.582,2.635h33.657a1.8,1.8,0,0,0,1.581-2.635C246.091,235.641,234.212,235.748,234.212,235.748Z" style="fill:#ef7575"/><path d="M65.412,88.855a3.468,3.468,0,0,0-3.468-3.468H43.916v6.936H61.944A3.468,3.468,0,0,0,65.412,88.855Z" style="fill:#84b4d3"/><path d="M54.984,66.637H43.916v6.936H54.984a3.468,3.468,0,0,0,0-6.936Z" style="fill:#84b4d3"/><path d="M54.984,47.888H43.916v6.936H54.984a3.468,3.468,0,0,0,0-6.936Z" style="fill:#84b4d3"/><path d="M203.67,52.458a3.469,3.469,0,0,1-3.19-4.827l4.139-9.724a4.055,4.055,0,0,0-1.67-5.068,10.985,10.985,0,0,1-4.494-13.856l3.888-8.9a3.467,3.467,0,1,1,6.355,2.776l-3.888,8.9a4.046,4.046,0,0,0,1.655,5.1A11.007,11.007,0,0,1,211,40.623l-4.138,9.724A3.468,3.468,0,0,1,203.67,52.458Z" style="fill:#f74f73"/><path d="M240.62,52.458a3.469,3.469,0,0,1-3.19-4.827l4.139-9.724a4.055,4.055,0,0,0-1.67-5.068,10.985,10.985,0,0,1-4.494-13.856l3.886-8.9a3.469,3.469,0,0,1,6.358,2.775l-3.887,8.9a4.043,4.043,0,0,0,1.653,5.1,11.006,11.006,0,0,1,4.536,13.762l-4.138,9.724A3.468,3.468,0,0,1,240.62,52.458Z" style="fill:#f74f73"/><path d="M277.57,52.458a3.469,3.469,0,0,1-3.19-4.827l4.139-9.724a4.053,4.053,0,0,0-1.67-5.068,10.986,10.986,0,0,1-4.494-13.856l3.886-8.9a3.469,3.469,0,0,1,6.358,2.775l-3.887,8.9a4.043,4.043,0,0,0,1.653,5.1A11.007,11.007,0,0,1,284.9,40.623l-4.139,9.724A3.468,3.468,0,0,1,277.57,52.458Z" style="fill:#f74f73"/><path d="M205.41,210.434a16.471,16.471,0,0,1-1.669-.072,3.468,3.468,0,0,1,.74-6.9c.369.036,8.184.71,13.7-5.3a3.468,3.468,0,0,1,5.109,4.692C217.063,209.641,208.889,210.434,205.41,210.434Z" style="fill:#e5837c"/><path d="M263.029,210.434c-3.478,0-11.652-.793-17.884-7.578a3.468,3.468,0,1,1,5.109-4.691c5.537,6.029,13.376,5.332,13.708,5.3a3.468,3.468,0,0,1,.736,6.9A16.45,16.45,0,0,1,263.029,210.434Z" style="fill:#e5837c"/><path d="M174.742,210.593a8.915,8.915,0,0,0-5.994-3.095,1.865,1.865,0,0,0-1.918,1.784,1.887,1.887,0,0,0,1.77,1.961,6.429,6.429,0,0,1,5.176,5.731s-2.519-.531-2.754,3.186,1.107,6.119,5.311,6.181a1.875,1.875,0,0,0,1.755-1.728C178.572,218.327,177.446,213.609,174.742,210.593Z" style="fill:#e5837c"/><path d="M294.023,210.433a9.147,9.147,0,0,1,6.147-3.174,1.912,1.912,0,0,1,1.966,1.83,1.934,1.934,0,0,1-1.814,2.01,6.59,6.59,0,0,0-5.307,5.877s2.583-.545,2.823,3.266-1.135,6.274-5.445,6.337a1.92,1.92,0,0,1-1.8-1.771C290.1,218.362,291.251,213.525,294.023,210.433Z" style="fill:#e5837c"/><path d="M63.9,331.963q.966.036,1.928.037a48.988,48.988,0,0,0,48.963-48.985,49.088,49.088,0,0,0-20.725-40.009,6.689,6.689,0,0,1-2.9-5.409V44.756a25.362,25.362,0,1,0-50.724,0v192.7a6.638,6.638,0,0,1-2.76,5.457A48.984,48.984,0,0,0,63.9,331.963Zm-22.23-83.378a13.583,13.583,0,0,0,5.71-11.134V44.756a18.426,18.426,0,0,1,36.852,0V237.6a13.632,13.632,0,0,0,5.828,11.071,42.142,42.142,0,0,1,17.795,34.347,42.05,42.05,0,0,1-43.692,42.017,42.047,42.047,0,0,1-22.493-76.447Z" style="fill:#3c3c4f"/><path d="M65.807,309.8A26.785,26.785,0,0,0,76.3,258.368V112.677a10.493,10.493,0,1,0-20.986,0V258.368A26.785,26.785,0,0,0,65.807,309.8Zm-5.981-45.707a3.468,3.468,0,0,0,2.424-3.307v-148.1a3.557,3.557,0,0,1,7.114,0v148.1a3.468,3.468,0,0,0,2.424,3.307,19.845,19.845,0,1,1-11.962,0Z" style="fill:#3c3c4f"/><path d="M150.139,168.729a12.045,12.045,0,0,0,7.868,2.387c-.657,10.74,1.363,21.475,2.947,27.921a12.863,12.863,0,0,0-3.724,6.89c-.971,5.169-.746,12.015.668,20.35,1.23,7.256,4.418,12.432,9.476,15.387a20.929,20.929,0,0,0,10.616,2.641,30.624,30.624,0,0,0,6.051-.628c3.173,8.382,8.31,17.283,16.606,24.182V308.14a17.881,17.881,0,0,0,3.581,10.813c3.719,4.872,12.559,13.046,29.98,13.046s26.263-8.174,29.98-13.046a17.882,17.882,0,0,0,3.582-10.813V267.86c8.3-6.9,13.434-15.8,16.606-24.186a30.657,30.657,0,0,0,6.066.631,20.935,20.935,0,0,0,10.615-2.641c5.058-2.954,8.246-8.131,9.477-15.387,1.413-8.333,1.637-15.179.667-20.35a12.859,12.859,0,0,0-4.049-7.213c13.335-19.093,18.4-37.84,15-55.755-4.74-25-24.319-40.062-29.318-43.547-4.829-16.079-16.8-24.007-26.112-27.84a40.882,40.882,0,0,0-25.234-1.726,177.3,177.3,0,0,0-28.841,9.977A122.65,122.65,0,0,0,159.838,123.7c-7.271,10.914-12.095,21.984-14.339,32.9A11.962,11.962,0,0,0,150.139,168.729Zm35.032,11.057a80.927,80.927,0,0,0-5.255,20.191,16.834,16.834,0,0,0-5.822-3.714,12.486,12.486,0,0,0-6.795-.557c-1.414-6.223-3.286-17.066-2.113-27.121a104.173,104.173,0,0,1,19.148-7.374,42.864,42.864,0,0,0-2.665,8.207A10.715,10.715,0,0,0,185.171,179.786Zm-14.3,55.889c-3.2-1.87-5.265-5.422-6.136-10.558-1.276-7.524-1.508-13.549-.689-17.909a5.919,5.919,0,0,1,2.9-4.077,5.512,5.512,0,0,1,4.713-.372c7.8,2.92,9.165,15.289,9.2,15.609L182.53,236.9C179.61,237.48,174.724,237.925,170.872,235.675Zm89.962,72.465a10.918,10.918,0,0,1-2.159,6.605c-3.592,4.707-10.753,10.318-24.467,10.318s-20.874-5.611-24.466-10.318a10.911,10.911,0,0,1-2.159-6.605V272.677c6.982,4,15.657,6.713,26.452,7.252.058,0,.115,0,.173,0s.115,0,.173,0c10.8-.539,19.47-3.25,26.453-7.252ZM303.7,225.118c-.868,5.121-2.923,8.667-6.108,10.54-3.876,2.279-8.765,1.832-11.686,1.249l1.67-18.539c.034-.32,1.4-12.689,9.2-15.609a5.509,5.509,0,0,1,4.712.372,5.916,5.916,0,0,1,2.9,4.076C305.2,211.569,304.971,217.6,303.7,225.118ZM152.293,158c2.063-10.04,6.544-20.286,13.317-30.453a115.726,115.726,0,0,1,49.845-41.377,170.476,170.476,0,0,1,27.707-9.588,33.878,33.878,0,0,1,20.922,1.408c8.112,3.338,18.585,10.3,22.417,24.5a3.464,3.464,0,0,0,1.493,2.027c.225.143,22.569,14.546,27.345,39.738,3.088,16.287-1.81,33.576-14.513,51.405a12.483,12.483,0,0,0-6.489.608q-.567.213-1.1.46a131.022,131.022,0,0,0-2.242-24.987,3.468,3.468,0,1,0-6.812,1.307,126.576,126.576,0,0,1,1.957,29.7c-4.589,6.366-5.425,14.49-5.471,14.974l0,.015-1.892,21.009c-4.992,14.907-16.774,32.794-44.564,34.254-27.753-1.458-39.539-19.3-44.543-34.195l-1.9-21.068,0-.015a35.857,35.857,0,0,0-1.8-7.749,3.026,3.026,0,0,0,.043-.3c.546-12.542,3.2-21.557,5.591-27.28a10.548,10.548,0,0,0,6.283-1.737c22.266-14.513,49.829-25.121,61.656-29.338-.839,5.942.312,10.319,3.445,13.054,7.25,6.33,21.472.022,23.069-.718l0,0h0l6.437-3a3.468,3.468,0,0,0-2.93-6.287l-6.431,3c-3.774,1.736-12.542,4.455-15.594,1.784-1.823-1.595-1.792-6.011.086-12.114a3.468,3.468,0,0,0-4.371-4.323c-1.591.509-39.317,12.684-69.162,32.137a3.6,3.6,0,0,1-4.075-.044,3.741,3.741,0,0,1-1.568-3.941,41.4,41.4,0,0,1,5.415-12.924,3.468,3.468,0,0,0-3.519-5.235,107.334,107.334,0,0,0-30.509,10.864,5.084,5.084,0,0,1-5.572-.4A5.028,5.028,0,0,1,152.293,158Z" style="fill:#3c3c4f"/><path d="M234.215,232.268H234.2c-1.061,0-15.987.314-22.822,17.381a3.468,3.468,0,0,0,3.219,4.757h39.22a3.469,3.469,0,0,0,3.22-4.757C250.2,232.581,235.275,232.268,234.215,232.268Zm-13.9,15.2A17.975,17.975,0,0,1,234.2,239.2h.012A17.974,17.974,0,0,1,248.1,247.47Z" style="fill:#3c3c4f"/></g></svg>