<svg xmlns="http://www.w3.org/2000/svg" width="128" height="128" viewBox="0 0 128 128">
  <title>RUNNY NOSE</title>
  <g>
    <path d="M49.189,97.106V94.163a26.132,26.132,0,0,0-5.6-1.277,21.89,21.89,0,0,1-3.77-.8l-.012.012v5a20.3,20.3,0,0,1-1.938,8.806,17.264,17.264,0,0,0-1.883,7.13,8.511,8.511,0,1,0,17.021.147,16.881,16.881,0,0,0-1.759-7.013A21.443,21.443,0,0,1,49.189,97.106Z" fill="#99e6fc"/>
    <path d="M64,99.845c8.089,0,9.69-5.668,20.407-6.959,8.571-1.032,15.477-6.658,13.755-15.756C96.323,67.411,87,62.529,87,62.529s-6.191-26.743-9.556-40.551a40.964,40.964,0,0,0-3.65-9.826,11.127,11.127,0,0,0-19.586,0,40.964,40.964,0,0,0-3.65,9.826C47.191,35.786,41,62.529,41,62.529s-9.324,4.882-11.163,14.6c-1.722,9.1,5.184,14.724,13.755,15.756C54.31,94.177,55.911,99.845,64,99.845Z" fill="#fed2a4"/>
    <g>
      <path d="M78.462,33.734,79.5,38.121a1.75,1.75,0,1,0,3.406-.8L81.868,32.93a1.75,1.75,0,1,0-3.406.8Z"/>
      <path d="M99.882,76.805c-1.686-8.908-9-13.987-11.35-15.413-.472-2.032-1.856-8-3.51-15.062a1.75,1.75,0,1,0-3.408.8c2.045,8.737,3.68,15.795,3.68,15.8a1.747,1.747,0,0,0,.893,1.155c.085.045,8.593,4.592,10.255,13.377a10.246,10.246,0,0,1-1.635,8.271c-2.116,2.888-5.982,4.866-10.609,5.423a28.394,28.394,0,0,0-11.944,4.238C69.616,96.9,67.532,98.1,64,98.1s-5.616-1.2-8.253-2.709A28.41,28.41,0,0,0,43.8,91.149c-4.627-.557-8.494-2.535-10.609-5.423a10.242,10.242,0,0,1-1.635-8.271c1.653-8.738,10.172-13.333,10.255-13.377a1.747,1.747,0,0,0,.893-1.155c.062-.268,6.227-26.891,9.552-40.531a39.448,39.448,0,0,1,3.488-9.407,9.376,9.376,0,0,1,16.508,0,39.47,39.47,0,0,1,3.488,9.407l.47,1.934a1.75,1.75,0,1,0,3.4-.822l-.471-1.94a42.957,42.957,0,0,0-3.811-10.245,12.876,12.876,0,0,0-22.664,0,42.892,42.892,0,0,0-3.811,10.245C45.84,33.939,40.493,56.97,39.468,61.392,37.113,62.818,29.8,67.9,28.119,76.805a13.787,13.787,0,0,0,2.25,10.988,16.651,16.651,0,0,0,7.691,5.533V97.1a19.083,19.083,0,0,1-.96,6.064,1.75,1.75,0,1,0,3.319,1.111A22.58,22.58,0,0,0,41.56,97.1V94.325c.6.119,1.2.224,1.823.3a25.241,25.241,0,0,1,4.056.819v1.662a23.062,23.062,0,0,0,2.226,9.8,15.069,15.069,0,0,1,1.6,6.274,6.766,6.766,0,0,1-7.738,6.693,6.689,6.689,0,0,1-5.783-6.818q0-.3.025-.606a1.75,1.75,0,1,0-3.492-.246q-.029.4-.033.809a10.153,10.153,0,0,0,8.8,10.328,10.478,10.478,0,0,0,1.433.1,10.255,10.255,0,0,0,10.284-10.258,18.482,18.482,0,0,0-1.924-7.752,19.605,19.605,0,0,1-1.9-8.325v-.333c1.1.525,2.09,1.09,3.066,1.65,2.844,1.632,5.53,3.174,9.995,3.174s7.151-1.542,10-3.174a25.051,25.051,0,0,1,10.62-3.8c5.586-.673,10.33-3.163,13.015-6.831A13.791,13.791,0,0,0,99.882,76.805Z"/>
      <path d="M84.837,100.214a1.75,1.75,0,1,0-3.354,1l4.043,13.54a1.751,1.751,0,0,0,1.676,1.249,1.783,1.783,0,0,0,.5-.073,1.751,1.751,0,0,0,1.176-2.178Z"/>
      <path d="M91.821,97.817a1.749,1.749,0,1,0-2.931,1.911l5,7.675a1.749,1.749,0,1,0,2.931-1.91Z"/>
      <path d="M75.96,101.806a1.749,1.749,0,0,0-1.75,1.75v8.885a1.75,1.75,0,0,0,3.5,0v-8.885A1.749,1.749,0,0,0,75.96,101.806Z"/>
    </g>
  </g>
</svg>
