<svg xmlns="http://www.w3.org/2000/svg" width="128" height="128" viewBox="0 0 128 128">
  <title>SORE THROAT</title>
  <g>
    <path d="M110.145,69.271l-8.159-17.849a38.684,38.684,0,0,0-6.492-21.514l-.013,0a33.42,33.42,0,0,1-18.136,7.319C74.091,52.985,65.316,57.94,65.316,57.94s-1.449-6.658-7.481-6.877c0,0-6.809-.534-8.532,7.167-1.185,5.294,1.562,13.455,8.727,15.212C53.421,90.954,38.479,94.765,38.479,94.765v26.928H75.711V105.677L93.4,112.8a4.119,4.119,0,0,0,5.637-3.422l1.338-13.728L84.929,88.1l17.457-4.653-1.668-8.286,7.276-1.588A3.089,3.089,0,0,0,110.145,69.271Z" fill="#fed2a4"/>
    <path d="M65.316,7.933C38.4,4.2,26.581,20.578,27.546,32.027c0,0-19.4,9.076-4.078,41.415,7.077,14.932,15.011,21.323,15.011,21.323S53.421,90.954,58.03,73.442c-7.165-1.757-9.912-9.918-8.727-15.212,1.723-7.7,8.532-7.167,8.532-7.167,6.032.219,7.481,6.878,7.481,6.878s8.775-4.956,12.029-20.717c0,0,26.268-.937,30.163-30.917C107.508,6.307,94.238,11.943,65.316,7.933Z" fill="#9b8e99"/>
    <path d="M62.4,104.113a3.7,3.7,0,1,1-3.7-3.7A3.7,3.7,0,0,1,62.4,104.113Z" fill="#f07281"/>
    <g>
      <path d="M47.675,111.67a2.144,2.144,0,1,0,2.143,2.143A2.144,2.144,0,0,0,47.675,111.67Z"/>
      <path d="M66.646,115.957A2.143,2.143,0,1,0,68.79,118.1,2.143,2.143,0,0,0,66.646,115.957Z"/>
      <path d="M69.056,91.478A2.144,2.144,0,1,0,71.2,93.622,2.144,2.144,0,0,0,69.056,91.478Z"/>
      <path d="M111.736,68.544l-4.28-9.365a1.75,1.75,0,0,0-3.184,1.455L108.553,70a1.338,1.338,0,0,1-.932,1.864l-7.276,1.588A1.752,1.752,0,0,0,99,75.507l1.344,6.673L84.478,86.408a1.75,1.75,0,0,0-.317,3.264l14.358,7.012L97.3,109.2a2.37,2.37,0,0,1-3.241,1.969l-17.693-7.118a1.749,1.749,0,0,0-2.4,1.623v16.016a1.75,1.75,0,0,0,3.5,0V108.268l15.289,6.151a5.869,5.869,0,0,0,8.031-4.876l1.339-13.728a1.75,1.75,0,0,0-.974-1.743L89.908,88.584l12.928-3.445A1.752,1.752,0,0,0,104.1,83.1l-1.329-6.6,5.594-1.221a4.839,4.839,0,0,0,3.369-6.739Z"/>
      <path d="M26.785,76.158A1.75,1.75,0,0,0,23.691,77.8c.706,1.334,1.447,2.65,2.2,3.912a1.75,1.75,0,0,0,3-1.795C28.173,78.7,27.462,77.439,26.785,76.158Z"/>
      <path d="M59.723,73.888a1.749,1.749,0,0,0-1.276-2.145c-6.094-1.495-8.438-8.656-7.436-13.132,1.334-5.964,6.154-5.839,6.761-5.8,4.574.165,5.787,5.289,5.834,5.5a1.751,1.751,0,0,0,2.571,1.151c.376-.212,9.034-5.259,12.6-20.625a36.5,36.5,0,0,0,16.207-6.411,36.938,36.938,0,0,1,5.247,18.994,1.75,1.75,0,1,0,3.5,0,40.416,40.416,0,0,0-6-21.212c5.334-4.8,10.022-12.208,11.512-23.678a1.751,1.751,0,0,0-2.42-1.836c-.128.054-13.148,5.4-41.267,1.5-13.328-1.848-24.771,1.02-32.216,8.075-4.93,4.673-7.716,10.864-7.6,16.767a20.611,20.611,0,0,0-7.027,7.736c-2.867,5.386-5.04,14.991.894,30.163a1.75,1.75,0,1,0,3.26-1.275c-10.239-26.182,4.78-33.748,5.417-34.054a1.748,1.748,0,0,0,1-1.732c-.438-5.185,1.977-10.816,6.459-15.064,6.657-6.31,17.071-8.851,29.327-7.149,21.835,3.029,34.88.655,40.257-.815-4.8,25.411-27.075,26.585-28.051,26.624a1.75,1.75,0,0,0-1.651,1.395c-2.171,10.513-6.926,15.972-9.478,18.238-1.284-2.651-3.871-5.634-8.181-5.79-2.865-.219-8.752,1.266-10.377,8.53-1.194,5.337,1.157,13.878,8.284,16.738A27.711,27.711,0,0,1,38.9,92.8a48.115,48.115,0,0,1-5.1-5.681,1.751,1.751,0,0,0-2.764,2.149,50.032,50.032,0,0,0,5.692,6.289v26.133a1.75,1.75,0,0,0,3.5,0V96.042C44.162,94.635,55.67,89.286,59.723,73.888Z"/>
      <path d="M64.333,107.264l-.746-.746a5.474,5.474,0,0,0,.273-.655h1.053a1.75,1.75,0,1,0,0-3.5H63.86a5.529,5.529,0,0,0-.273-.654l.746-.746a1.75,1.75,0,1,0-2.475-2.475l-.745.746a5.474,5.474,0,0,0-.655-.273V97.908a1.75,1.75,0,1,0-3.5,0v1.053a5.366,5.366,0,0,0-.654.273l-.746-.746a1.75,1.75,0,1,0-2.475,2.475l.746.746a5.529,5.529,0,0,0-.273.654H52.5a1.75,1.75,0,1,0,0,3.5h1.053a5.32,5.32,0,0,0,.274.655l-.747.746a1.75,1.75,0,1,0,2.475,2.474l.746-.746a5.529,5.529,0,0,0,.654.273v1.053a1.75,1.75,0,1,0,3.5,0v-1.053a5.46,5.46,0,0,0,.654-.273l.746.746a1.75,1.75,0,1,0,2.475-2.474Zm-7.57-3.151a1.946,1.946,0,1,1,1.945,1.946A1.948,1.948,0,0,1,56.763,104.113Z"/>
    </g>
  </g>
</svg>
